<svg id="Layer_1" data-name="Layer 1" xmlns="http://www.w3.org/2000/svg" xmlns:xlink="http://www.w3.org/1999/xlink" viewBox="0 0 600 600"><defs><style>.cls-1{fill:#151414;}.cls-2{fill:url(#linear-gradient);}.cls-3{fill:url(#linear-gradient-2);}.cls-4{fill:url(#linear-gradient-3);}.cls-5{fill:url(#linear-gradient-4);}.cls-6{fill:url(#linear-gradient-5);}.cls-7{fill:url(#linear-gradient-6);}.cls-8{fill:url(#linear-gradient-7);}.cls-9{fill:url(#linear-gradient-8);}.cls-10{fill:none;}.cls-11{fill:#d3a567;}.cls-12{fill:url(#linear-gradient-9);}.cls-13{fill:url(#linear-gradient-10);}</style><linearGradient id="linear-gradient" x1="153.99" y1="426.97" x2="151.76" y2="425.68" gradientUnits="userSpaceOnUse"><stop offset="0" stop-color="#462523"/><stop offset="0.26" stop-color="#ca9a50"/><stop offset="0.38" stop-color="#f5e27b"/><stop offset="0.5" stop-color="#f6f2c1"/><stop offset="0.61" stop-color="#f5e27b"/><stop offset="0.73" stop-color="#ca9a50"/><stop offset="1" stop-color="#462523"/></linearGradient><linearGradient id="linear-gradient-2" x1="148.74" y1="263.87" x2="145.59" y2="262.05" xlink:href="#linear-gradient"/><linearGradient id="linear-gradient-3" x1="219.64" y1="147.88" x2="186.17" y2="128.56" gradientUnits="userSpaceOnUse"><stop offset="0.09" stop-color="#462523"/><stop offset="0.27" stop-color="#ca9a50"/><stop offset="0.37" stop-color="#f5e27b"/><stop offset="0.47" stop-color="#f6f2c1"/><stop offset="0.53" stop-color="#f5e27b"/><stop offset="0.58" stop-color="#ca9a50"/><stop offset="0.87" stop-color="#462523"/></linearGradient><linearGradient id="linear-gradient-4" x1="130.18" y1="179.57" x2="98.44" y2="161.25" xlink:href="#linear-gradient-3"/><linearGradient id="linear-gradient-5" x1="116.01" y1="491.61" x2="419.43" y2="491.61" xlink:href="#linear-gradient-3"/><linearGradient id="linear-gradient-6" x1="130.68" y1="446.15" x2="114.48" y2="436.8" xlink:href="#linear-gradient"/><linearGradient id="linear-gradient-7" x1="256.52" y1="452.57" x2="434.49" y2="452.57" gradientUnits="userSpaceOnUse"><stop offset="0.1" stop-color="#462523"/><stop offset="0.13" stop-color="#502e26"/><stop offset="0.17" stop-color="#6c4630"/><stop offset="0.22" stop-color="#986e3f"/><stop offset="0.28" stop-color="#ca9a50"/><stop offset="0.41" stop-color="#f5e27b"/><stop offset="0.47" stop-color="#f6f2c1"/><stop offset="0.53" stop-color="#f5e27b"/><stop offset="0.66" stop-color="#ca9a50"/><stop offset="0.87" stop-color="#462523"/></linearGradient><linearGradient id="linear-gradient-8" x1="125.97" y1="129.6" x2="358.9" y2="129.6" gradientUnits="userSpaceOnUse"><stop offset="0.24" stop-color="#462523"/><stop offset="0.33" stop-color="#ca9a50"/><stop offset="0.41" stop-color="#f5e27b"/><stop offset="0.47" stop-color="#f6f2c1"/><stop offset="0.53" stop-color="#f5e27b"/><stop offset="0.58" stop-color="#ca9a50"/><stop offset="0.87" stop-color="#462523"/></linearGradient><linearGradient id="linear-gradient-9" x1="219.64" y1="148.91" x2="186.17" y2="129.59" xlink:href="#linear-gradient-3"/><linearGradient id="linear-gradient-10" x1="124.56" y1="210.35" x2="291.32" y2="210.35" gradientUnits="userSpaceOnUse"><stop offset="0.3" stop-color="#462523"/><stop offset="0.37" stop-color="#ca9a50"/><stop offset="0.43" stop-color="#f5e27b"/><stop offset="0.48" stop-color="#f6f2c1"/><stop offset="0.57" stop-color="#f5e27b"/><stop offset="0.65" stop-color="#ca9a50"/><stop offset="0.87" stop-color="#462523"/></linearGradient></defs><title>GOOD CARE, GOOD HAIR FINAL</title><path class="cls-1" d="M261.22,344.47a15.64,15.64,0,0,1,12.25-6.25c-.05-.14-.1-.28-.16-.43-5.45-3.18-11.34-7.7-10.94-14.11a5.91,5.91,0,0,0,4.91.4,5.5,5.5,0,0,0,1.72-1,12,12,0,0,0-8.06-11.37l-.48-.14a7.94,7.94,0,0,1-3.17-1.1c-2-1.55-1.28-4.32-1-7.08a10.46,10.46,0,0,0-.07-3.54,5.81,5.81,0,0,0-4.26-4.05,6.25,6.25,0,0,0-1.6-.23,10.06,10.06,0,0,0-6.83,3.28,10.56,10.56,0,0,1,.28-13,38.68,38.68,0,0,0-15.31-2c1.25-1.23,1.65-4.39.11-5.19-2.1,2.61-6.77,2-8.16-1.12a20,20,0,0,0-1.24-3.13c-.63-.92-2.1-1.38-2.75-.47-.51.71-.19,1.75-.46,2.59-.51,1.6-2.88,1.58-4,.36a5,5,0,0,1-1-1.84A74.93,74.93,0,0,1,196,277c-8.13,0-16.05-1.83-22.59-6q-.68-.43-1.32-.9c-1.27.08-2.56.5-3.84.66a9.8,9.8,0,0,1-9.28-4.47c-1.48,3.34-4.66,7.09-8,8.11.35,4.12-3.83,7.91-7.68,7a7.25,7.25,0,0,0-2.53-.5c-1.36.16-2.29,1.47-3.07,2.65A76.56,76.56,0,0,1,122.8,300c-1.15.95-2.54,1.92-4,1.57-.77-.19-1.47-.75-2.26-.69a2.8,2.8,0,0,0-1.68,1A14.65,14.65,0,0,0,113,318.71a2.43,2.43,0,0,1-3.2-1.28c-3.81.76-6.06,5.26-5.85,9.31.15,3.08,1.52,5.78,2.83,8.49.68,1.4,1.12,2.68-.58,3.4-.89.38-4.67,1.32-4.62,2.67,0,1,4.09,3.5,4.86,4.27,1,1,3.74,3.27,3.51,5-.17,1.22-1.82,1.51-2.89,1s-2-1.47-3.1-1.74c-2.71-.62-4.68,3.25-3.76,6s3.39,4.52,5.5,6.42a9.74,9.74,0,0,1,3.62,6.63c.08,1.29-2.45,1.45-3.35,1.87-1.41.65-3.76,2-4.4,3.53-.75,1.83.76,1.78,2.12,2.41a25.61,25.61,0,0,1,8.33,5.63c.33.35,2.74,3.73,2.9,3.7a7.35,7.35,0,0,0-5.56,8.16,7.07,7.07,0,0,0,7.79,5.83c2.36-.41,5.15-2,6.83-.18s.1,4.24-.8,5.9-1.72,3.35-1.32,5.1c.45,2,2.45,3.28,4.41,3.76a18.31,18.31,0,0,0,4.11.24c.14.67-2.18,4.16-2.91,4.57a7,7,0,0,1,3.16-1.08,4.86,4.86,0,0,1,3,1c.7.49,3.65,2.89,3.54,3.83-.14,1.19-2.75,1.58-2.81,3.46a3,3,0,0,0,2.35,2.79,6.13,6.13,0,0,0,3.8-.52c3.79-1.58,8.78-3.27,12.54-.58,1.3.94,1.48,2.2,1.87,3.56,3.06-.94,4.5-4.57,8-4.54,4.6,0,9,6,12.8,3.39a5.58,5.58,0,0,1,2.45-6,5.38,5.38,0,0,1,6.33.73c.72.7,1.28,1.62,2.21,2,2.82,1.11,3.73-2.27,4.85-4.14,2.37-4,5.73-1.38,8.32.48a4.05,4.05,0,0,1,2.6-2.77c1.3-.51,2.79-.77,3.75-1.8a6.56,6.56,0,0,0,1.27-3.72l1.33-10.79a37.33,37.33,0,0,0,9.24,3.35,2.14,2.14,0,0,0,1.54-.07c.65-.4.7-1.32.68-2.09,0-2.13-1.31-8.36.34-9.93,2.1-2,4.09.85,6.26.63,1.18-.14,2-1.26,2.58-2.31A33.74,33.74,0,0,0,233.49,383c1.54,1.1,3.78,1.5,5.25.31s.9-3.52.32-4.81a86.72,86.72,0,0,1,10.85-.81c-.07-.62-.15-1.25-.23-1.89,3.48-.19,6.81-.31,10-.39,2.15,0,4.2-.06,6.19-.07-.37-.34-.73-.69-1.07-1.05-2.26-2.48-3.31-7.14-.51-8.93,1.16-.74,2.63-.71,3.85-1.34s2-2.61.86-3.39l2.36,1.13A32.68,32.68,0,0,0,261.22,344.47Z"/><path class="cls-2" d="M154.86,425.46a8.27,8.27,0,0,1-4,1.73A3.3,3.3,0,0,0,154.86,425.46Z"/><path class="cls-3" d="M147.07,262.15c-.13-.57-.3-1.19-.48-1.83.4,1.77.77,3.54,1.14,5.29,0-.31-.08-.64-.14-1C147.44,263.89,147.27,263.07,147.07,262.15Z"/><path class="cls-4" d="M205.21,145.17a29.86,29.86,0,0,0,13.33-3.2,25.77,25.77,0,0,0,8.52-7.29,20.52,20.52,0,0,0,3.4-6.65c.49-1.69.45-2.69.2-2.77-.64-.23-1.93,3.35-5.88,7.49a27,27,0,0,1-8,5.73,29.37,29.37,0,0,1-11.75,2.46c-4.43.16-8.84-.09-13,.18a31.73,31.73,0,0,0-10.82,2.41,16.44,16.44,0,0,0-6.14,4.4c-1.12,1.41-1.42,2.38-1.21,2.53s1-.41,2.32-1.32a22.41,22.41,0,0,1,6.07-2.81,36.77,36.77,0,0,1,9.93-1.31C196.09,145,200.45,145.34,205.21,145.17Z"/><path class="cls-5" d="M134.57,171.48c.09-.14.17-.3.26-.44.69-1,1.37-2.06,2-3-.74.24-1.48.5-2.22.79l-.58.24c-1.16.47-2.32,1-3.49,1.52-2.53,1.16-5.09,2.43-7.75,3.55a29.31,29.31,0,0,1-11.69,2.73,26.83,26.83,0,0,1-9.65-1.83c-5.33-2.08-8-4.78-8.5-4.3-.19.17.19,1.1,1.35,2.43a20.93,20.93,0,0,0,5.89,4.59,25.83,25.83,0,0,0,10.81,3A29.9,29.9,0,0,0,124.47,178c2.56-1.08,4.89-2.26,7.11-3.38.1.47.22.94.32,1.4.39-.73.79-1.46,1.2-2.17S134.07,172.25,134.57,171.48Z"/><path class="cls-6" d="M419.43,513.08a51.52,51.52,0,0,1-12.36,5.55l-2.41.72-2.54.58-1.3.3-1.34.22c-.9.14-1.8.31-2.73.43a71.23,71.23,0,0,1-11.82.45A83.39,83.39,0,0,1,358.56,515a168.21,168.21,0,0,1-27.9-15.07c-9.48-6.11-19.15-13.17-29.74-19.94s-22.16-13.28-35.21-17.46a121.7,121.7,0,0,0-19.65-4.34,185.76,185.76,0,0,0-19.26-1.54c-6.29-.21-12.45-.17-18.45-.06s-11.83.24-17.56.41c-22.87.63-43.65,2.37-60.76,6.06-4.79,1-9.28,2.2-13.46,3.43-.19,1.74-.36,3.34-.53,4.75l0,.3q6.93-1.74,15-3.19c16.8-2.93,37.17-4.08,59.91-4.33l17.48-.15c5.95,0,12,0,18.1.24A184.58,184.58,0,0,1,245,465.71a117.13,117.13,0,0,1,18.39,4.1c12.08,3.86,23.15,10,33.52,16.5s20.17,13.47,30,19.56,19.58,11.38,29.37,15a85.73,85.73,0,0,0,28.5,5.81,71.53,71.53,0,0,0,12.72-1c1-.18,2-.41,2.92-.61l1.42-.31,1.38-.39,2.69-.78,2.56-.92a50.84,50.84,0,0,0,8.63-4.09c.53-1.2,1.13-2.56,1.77-4.09C419.05,514,419.24,513.56,419.43,513.08Z"/><path class="cls-7" d="M131.57,412a7,7,0,0,0-3.09,1c-.83,1.21-1.63,2.43-2.37,3.67a73.78,73.78,0,0,0-7.36,16.64,100.1,100.1,0,0,0-3.29,15.36,154.86,154.86,0,0,0-1.36,18.56c0,1.4,0,2.71,0,3.89,0,.31,0,.62,0,.91l1.93-.5,0-.3c.17-1.41.34-3,.53-4.75.51-4.71,1.19-10.55,2.43-17.23a109.88,109.88,0,0,1,3.76-14.65,73.26,73.26,0,0,1,7.33-15.47,71.26,71.26,0,0,1,4.44-6.24A4.78,4.78,0,0,0,131.57,412Z"/><path class="cls-8" d="M431.14,438.86a109.47,109.47,0,0,0-10.35-26.16l-.83-1.46a98,98,0,0,0-7.35-11.13c-3.19-4.07-7.07-8.13-12.33-10.81a24.51,24.51,0,0,0-8.39-2.55,29.15,29.15,0,0,0-6.19,0c-.75.07-1.49.16-2.21.27-.94.15-1.85.34-2.76.55a82.56,82.56,0,0,0-11.81,3.88c-2.23.88-4.38,1.75-6.5,2.53s-4.26,1.57-6.37,2.28c-1.46.5-2.91,1-4.36,1.42-2.76.86-5.5,1.65-8.21,2.4-16.56,4.43-32,6.84-44.94,8.8s-23.55,3.37-30.82,4.63-11.26,2.17-11.2,2.69,4.15.59,11.52.26,18-1,31.15-2.23a324.25,324.25,0,0,0,46.05-7.35c4.28-1.08,8.66-2.27,13.08-3.7,2.21-.71,4.44-1.44,6.66-2.27s4.46-1.66,6.64-2.5l1-.38a60.71,60.71,0,0,1,12-3.52,25.53,25.53,0,0,1,3.23-.3,20.34,20.34,0,0,1,4.43.35,16.74,16.74,0,0,1,4.52,1.57,30.9,30.9,0,0,1,9.81,8.7,92.53,92.53,0,0,1,6.72,10c.3.51.62,1,.91,1.55a108.22,108.22,0,0,1,13.9,47.9,109.2,109.2,0,0,1-1,20.88,120.57,120.57,0,0,1-7.71,28c-.19.48-.38.95-.57,1.4-.64,1.53-1.24,2.89-1.77,4.09a50.8,50.8,0,0,0,4.62-3.1c1-1.83,2.11-3.92,3.2-6.28a102.1,102.1,0,0,0,7.54-23.14,105.73,105.73,0,0,0,2-22A107.68,107.68,0,0,0,431.14,438.86Z"/><path class="cls-9" d="M358.19,151.54q-.45-3.21-1.17-6.45A107.77,107.77,0,0,0,332.07,97a110.39,110.39,0,0,0-10.3-10,120.13,120.13,0,0,0-22.71-15.12,125.36,125.36,0,0,0-11.67-5.3,147,147,0,0,0-42.83-9.69c-16-1.21-33.21-.64-48.67,4l-3.37,1c-1.14.37-2.28.84-3.45,1.27-.59.2-1.17.43-1.75.66-1.79.73-3.58,1.58-5.45,2.41A103.08,103.08,0,0,0,167,75.12,94.56,94.56,0,0,0,152.85,88a96,96,0,0,0-6.38,7.9c-2,2.8-3.85,5.74-5.61,8.77-3.5,6.07-6.44,12.16-9.16,18.11s-5,12.21-5.55,18.57a57.23,57.23,0,0,0,1.5,17.45c.92,4.25,2,8.15,2.93,11.77,1.17-.54,2.33-1,3.49-1.52-.74-3.51-1.58-7.2-2.29-11.08a55.32,55.32,0,0,1-1-16.15c.59-5.55,2.73-11.2,5.42-17s5.66-11.8,9-17.64a94,94,0,0,1,24.58-28.31A107.07,107.07,0,0,1,183.76,70,83.57,83.57,0,0,1,193.84,66c16.08-5.36,33.24-5.94,50.15-3.7a158.2,158.2,0,0,1,40.74,10.84c14.53,6.17,29.59,15.55,41.68,29a105.43,105.43,0,0,1,23.77,44.56,69.68,69.68,0,0,1,2.14,15.67,50,50,0,0,1-.25,6A41.12,41.12,0,0,1,346.15,186c-.26.4-.53.78-.79,1.17a30.06,30.06,0,0,1-10.16,9.35,28.86,28.86,0,0,1-5.09,2.18c-.95,1.44-1.93,2.84-3,4.16a29.67,29.67,0,0,0,9.94-2.52A33.54,33.54,0,0,0,350.61,189a45.1,45.1,0,0,0,7.73-19.83A62.54,62.54,0,0,0,358.19,151.54Z"/><path class="cls-10" d="M154.86,425.46a8.27,8.27,0,0,1-4,1.73A3.3,3.3,0,0,0,154.86,425.46Z"/><path class="cls-11" d="M428.17,464.25a108.22,108.22,0,0,0-13.9-47.9c-.29-.52-.61-1-.91-1.55a41.4,41.4,0,0,0-10.2,9.47,23,23,0,0,1-3.06-16.82c-3.84-2.74-9.19-1.34-13.41.75s-8.48,4.85-13.19,4.56-9.19-5.78-6.48-9.63c1.15-1.63,3.17-2.39,4.63-3.75a4.81,4.81,0,0,0,1-1.39l-1,.38c-2.18.84-4.39,1.71-6.64,2.5s-4.45,1.56-6.66,2.27c-4.42,1.43-8.8,2.62-13.08,3.7a324.25,324.25,0,0,1-46.05,7.35c-13.15,1.24-23.78,1.87-31.15,2.23s-11.47.26-11.52-.26,3.93-1.46,11.2-2.69,17.84-2.72,30.82-4.63,28.38-4.37,44.94-8.8c2.71-.75,5.45-1.54,8.21-2.4a25.76,25.76,0,0,1,.4-8.4c-6.51.86-13.31,1.7-19.49-.53s-11.41-8.55-10.06-15a4.17,4.17,0,0,0,4-4.19,22.9,22.9,0,0,1-23.86-13.44,4.75,4.75,0,0,1-.42-3.25c.43-1.27,1.73-2,2.52-3.09,1.45-2,.92-4.8.25-7.19a126,126,0,0,0-14.85-33.43c-1.24-2-2.6-4.23-1.95-6.46.41-1.4,1.55-2.46,2.41-3.64,3.94-5.4,1-14.32-5.35-16.35.69-5.91-2.81-13.22-6.83-17.62a16.87,16.87,0,0,0,12.75-11.69c.87-3,.92-6.46,2.85-9,2.1-2.74,6.06-3.8,7.66-6.86,2.31-4.41-1.61-9.36-5-13a21.24,21.24,0,0,1-3-4.24,19.2,19.2,0,0,1-2.4-.74c0,.25,0,.49-.06.75a47.85,47.85,0,0,1-8.53,22.35,50.53,50.53,0,0,1-11.85,12,67.17,67.17,0,0,1-17.21,8.48c-6.24,2.22-12.76,4-19.1,6.44s-12.89,5.49-19.68,8.61q-3.4,1.56-6.82,3.05a88.42,88.42,0,0,1,11.63,14.4c3.7,5.56,7.27,11.44,11,17.63A210.23,210.23,0,0,1,241.17,333a127.19,127.19,0,0,1,7.52,21.21,132.94,132.94,0,0,1,3.23,16.85c.07.59.13,1.18.19,1.76,0,.18,0,.36.07.54-.92,0-1.86,0-2.82,0l-1.13.07c0-.12,0-.24,0-.36-3.2.17-7.09.35-11.57.59a7.51,7.51,0,0,1,1.37,2,3,3,0,0,1,.27,1.75c-.5,2.4-4.1,1.78-6.24.58a26.78,26.78,0,0,1-4.22,11.57,3.33,3.33,0,0,1-1.57,1.47c-1.63.55-3.16-1.37-4.88-1.3-2.41.1-2.89,3.49-2.33,5.84s1.07,5.43-1,6.59a27,27,0,0,1-9.91-3.5l-1.32,10.87a5.51,5.51,0,0,1-1.24,3.41c-1,.94-2.49,1-3.78,1.44s-2.55,1.84-1.89,3l-6.38-3.73c-1.52.93-2.05,2.83-2.84,4.42s-2.49,3.16-4.16,2.52c-.9-.34-1.45-1.23-2.15-1.89a5.18,5.18,0,0,0-8.59,5c-3.76,2.48-8-3.22-12.51-3.25-3.28,0-5.65,2.9-8.35,4.88a3.3,3.3,0,0,1-4,1.73,8.27,8.27,0,0,0,4-1.73,2.72,2.72,0,0,0,.26-1.86c-.53-2.28-3.31-3.2-5.65-3.13s-4.76.69-6.95-.12c-3.38-1.26-5.22-5.54-8-7.44a71.26,71.26,0,0,0-4.44,6.24,73.26,73.26,0,0,0-7.33,15.47A109.88,109.88,0,0,0,119,449.27c-1.24,6.68-1.92,12.52-2.43,17.23,4.18-1.23,8.67-2.39,13.46-3.43,17.11-3.69,37.89-5.43,60.76-6.06,5.73-.17,11.57-.3,17.56-.41s12.16-.15,18.45.06a185.76,185.76,0,0,1,19.26,1.54,121.7,121.7,0,0,1,19.65,4.34c13.05,4.18,24.65,10.7,35.21,17.46s20.26,13.83,29.74,19.94A168.21,168.21,0,0,0,358.56,515a83.39,83.39,0,0,0,26.37,6.32,71.23,71.23,0,0,0,11.82-.45c.93-.12,1.83-.29,2.73-.43l1.34-.22,1.3-.3,2.54-.58,2.41-.72a51.34,51.34,0,0,0,12.36-5.55,120.57,120.57,0,0,0,7.71-28A109.2,109.2,0,0,0,428.17,464.25Z"/><path class="cls-10" d="M229.79,126.12c-.64-.23-1.93,3.39-5.88,7.59a27,27,0,0,1-8,5.81A29,29,0,0,1,204.21,142c-4.43.17-8.82-.09-12.94.18a31.59,31.59,0,0,0-10.8,2.44,17.93,17.93,0,0,0-3,1.68,21.38,21.38,0,0,1,2.22,1.52c.08.06.13.14.21.2.51-.19,1.06-.38,1.64-.55a35.7,35.7,0,0,1,9.91-1.34c3.84,0,8.2.33,13,.16a29.57,29.57,0,0,0,13.32-3.24,26,26,0,0,0,8.51-7.39,21,21,0,0,0,3.39-6.74C230.08,127.22,230,126.2,229.79,126.12Z"/><path class="cls-11" d="M349.14,147.84a107.28,107.28,0,0,0-23.74-45.16C313.33,89,298.29,79.51,283.78,73.25a156.08,156.08,0,0,0-40.68-11c-20.47-2.75-41.32-1.33-60.15,7.86a108.23,108.23,0,0,0-13.9,9,94.75,94.75,0,0,0-24.54,28.69c-3.37,5.91-6.3,12-9,17.87s-4.83,11.58-5.42,17.21a57.14,57.14,0,0,0,1,16.36c.71,3.93,1.55,7.67,2.29,11.23l.58-.24c.74-.3,1.48-.56,2.21-.81,1.73-2.58,3.38-5,4.8-7.37a47.58,47.58,0,0,0,4.28-9,5.83,5.83,0,0,0,1.56,0,11.24,11.24,0,0,0,1.69-.41c-.06.25-.11.49-.18.73A47.16,47.16,0,0,1,144,163.84c-.78,1.42-1.63,2.84-2.52,4.27s-1.81,2.93-2.74,4.42c-.44.69-.87,1.39-1.3,2.1q-1.33,2.2-2.54,4.56l-2.45,5.44c-.28.7-.56,1.39-.81,2.12a63,63,0,0,0-3.18,14.06,64.87,64.87,0,0,0,.08,14.42,63.89,63.89,0,0,0,3.1,13.09c2.5,7.14,6.22,13.56,9.59,20.27a62.18,62.18,0,0,1,4.65,14.4c.18.65.35,1.28.49,1.86l.51,2.48q.09.56.15,1c.09.47.19.94.29,1.41a19.13,19.13,0,0,0,9.23,13.05,26.32,26.32,0,0,0,6.75,2.51,35.63,35.63,0,0,0,9.22.84c1.66-.08,3.35-.25,5.06-.48a72.36,72.36,0,0,0,13.67-3.34q2.93-1,5.88-2.18c1.2-.48,2.4-1,3.6-1.49,3.35-1.43,6.74-3,10.19-4.59,6.74-3.14,13.42-6.3,20.22-8.79s13.45-4.21,19.43-6.18A64.85,64.85,0,0,0,266.4,252a48.45,48.45,0,0,0,11.08-10.16,54.43,54.43,0,0,0,9.91-19.91c.14-.53.26-1,.38-1.51a18.42,18.42,0,0,1-3.3-2.5,15.54,15.54,0,0,1-3.93-6,11.59,11.59,0,0,1-.6-4.48c.15-1,.3-1.53.41-1.52s.2.55.27,1.51a14.73,14.73,0,0,0,1.14,4,15.14,15.14,0,0,0,4,5.06,17.11,17.11,0,0,0,2.55,1.77,15.89,15.89,0,0,0,2.2,1c.37.15.76.27,1.15.4-.62-2.29-.46-4.53,1.18-6.24a12.84,12.84,0,0,1,3.92-2.34,26.77,26.77,0,0,0,13.37-14.83c.61-1.66,1.09-3.46,2.34-4.69,1.95-1.91,5.05-1.81,7.72-1.31s5.49,1.26,8,.27,4.11-4.72,2.07-6.54c-1.08-1-2.84-1.1-3.57-2.37-.92-1.61.72-3.64,2.51-4.06s3.64.12,5.47,0l.12,0c0-.2.09-.41.13-.62a34.15,34.15,0,0,0,.35-13.27c-.78-4.08-2.95-7.49-6.05-9.1a14.07,14.07,0,0,0-9.7-1,22,22,0,0,0-7.73,3.6,50.81,50.81,0,0,0-5.17,4.25c-2.73,2.53-4.24,4-4.42,3.81s1-1.88,3.48-4.75a40.28,40.28,0,0,1,5-4.85,23,23,0,0,1,8.28-4.42,19.28,19.28,0,0,1,5.53-.68,14.61,14.61,0,0,1,6,1.48,13.35,13.35,0,0,1,5.08,4.45A18.24,18.24,0,0,1,338.3,163a35.23,35.23,0,0,1,.08,13.31c3.37-2.28,5.19-7.17,3.3-10.93,2.19-1.93,6.63.72,7.64,3.47.58-1.73,1.25-3.44,2-5.12A71.47,71.47,0,0,0,349.14,147.84ZM229.59,128.93a21,21,0,0,1-3.39,6.74,26,26,0,0,1-8.51,7.39,29.57,29.57,0,0,1-13.32,3.24c-4.75.17-9.11-.21-13-.16a35.7,35.7,0,0,0-9.91,1.34c-.58.17-1.13.36-1.64.55-.08-.06-.13-.14-.21-.2a21.38,21.38,0,0,0-2.22-1.52,17.93,17.93,0,0,1,3-1.68,31.59,31.59,0,0,1,10.8-2.44c4.12-.27,8.51,0,12.94-.18A29,29,0,0,0,216,139.52a27,27,0,0,0,8-5.81c4-4.2,5.24-7.82,5.88-7.59C230,126.2,230.08,127.22,229.59,128.93Z"/><path class="cls-12" d="M230.66,126.29c-.64-.23-1.93,3.35-5.88,7.49a26.82,26.82,0,0,1-8,5.73A29.37,29.37,0,0,1,205.05,142c-4.43.16-8.84-.09-13,.18a31.73,31.73,0,0,0-10.82,2.41,16.44,16.44,0,0,0-6.14,4.4c-1.12,1.41-1.42,2.38-1.21,2.53s1-.41,2.32-1.32a22.41,22.41,0,0,1,6.07-2.81,36.77,36.77,0,0,1,9.93-1.31c3.85-.06,8.21.32,13,.15a29.86,29.86,0,0,0,13.33-3.2,25.66,25.66,0,0,0,8.52-7.29,20.49,20.49,0,0,0,3.4-6.64C231,127.37,230.91,126.37,230.66,126.29Z"/><path class="cls-13" d="M288.72,218.28c-.12.48-.24,1-.38,1.49a53.39,53.39,0,0,1-9.92,19.65,48.11,48.11,0,0,1-11.1,10,65.5,65.5,0,0,1-15.9,7.05c-6,1.94-12.62,3.58-19.45,6.09s-13.5,5.58-20.26,8.68c-3.45,1.58-6.85,3.12-10.2,4.53q-1.8.76-3.6,1.47c-2,.77-3.94,1.5-5.9,2.15a72.23,72.23,0,0,1-13.68,3.29c-1.71.24-3.41.4-5.06.48a35.75,35.75,0,0,1-9.24-.83,26.72,26.72,0,0,1-6.76-2.47A18.88,18.88,0,0,1,148,267l-.3-1.38c0,.25.06.49.08.7-.5-2-.87-4.05-1.22-6h0a60.7,60.7,0,0,0-4.66-14.21c-3.38-6.63-7.1-13-9.61-20a61.78,61.78,0,0,1-3.09-12.92,61.38,61.38,0,0,1,3.1-28.1c.25-.72.53-1.41.8-2.1l2.46-5.36c.81-1.55,1.65-3.06,2.54-4.51l1.31-2.07,2.75-4.35c.88-1.41,1.74-2.82,2.51-4.22A45.82,45.82,0,0,0,149,152.16a41.94,41.94,0,0,0,1.39-16c-.43-3.76-1.19-5.73-1.44-5.68s-.12,2.11-.2,5.76a49.59,49.59,0,0,1-2.61,15,46.52,46.52,0,0,1-4.5,9.44c-1.42,2.34-3.08,4.73-4.8,7.28-.67,1-1.35,2-2,3-.09.14-.17.3-.26.44-.5.77-1,1.55-1.47,2.36s-.81,1.44-1.2,2.17a57.28,57.28,0,0,0-3.47,7.66,63,63,0,0,0-3.5,14.83,63.93,63.93,0,0,0,.18,15.23,62.55,62.55,0,0,0,3.55,13.72c2.61,6.85,6.77,13,9.74,19.65,4.49,10.12,2.3,22.61,8.73,31.78a23.16,23.16,0,0,0,5.8,5.71c.37.26.75.5,1.14.74a36.88,36.88,0,0,0,19.31,4.87,66.76,66.76,0,0,0,12.88-1.52,79,79,0,0,0,8.07-2.17c3.44-1.09,6.85-2.38,10.24-3.78,1.17-.48,2.33-1,3.5-1.49q3.42-1.49,6.82-3.05c6.79-3.12,13.3-6.2,19.68-8.61s12.86-4.22,19.1-6.44a67.17,67.17,0,0,0,17.21-8.48,50.53,50.53,0,0,0,11.85-12,47.85,47.85,0,0,0,8.53-22.35c0-.26,0-.5.06-.75A18.45,18.45,0,0,1,288.72,218.28Z"/><path class="cls-1" d="M567.9,291.38c-3.31-5.24-9.74-7.4-14.67-11.15-4.25-3.23-9-12.1-3-16,2-1.29,4.45-1.86,6.31-3.36s2.79-4.64,1-6.19l-4.06-5.16a19.39,19.39,0,0,0-1.19-9.46c-3.53-8.86-12.63-11.66-14-12.05,6.35-2.26,9.9-6.64,9.25-10a5.34,5.34,0,0,0-2.27-3.23,31.27,31.27,0,0,0-1.32-9.67,31.72,31.72,0,0,0-8.64-13.84,4.45,4.45,0,0,0,5.79-.39c3.45-3.54-2.22-10.66-4.3-13.8s-5-6.52-8.8-7.4c-4.08-.94-7.74-.36-9.93-4.56-1.28-2.46-1.26-5.42-1.44-8.11-.39-6-1.09-11.77-8.09-13-6-1.07-10.67,6.36-15,5.71-7.3-1.12-7.11-10.69-11.12-14.68-8.62-8.58-17.71-4.89-27.29-.47-11.94,5.5-18.53,6.8-28.46-3.88-8.93-9.61-18.34-2-28.74-7.77-1.87-1-3.64-2.34-5.71-2.92a24.11,24.11,0,0,0-3.84-.74,33.83,33.83,0,0,0-7.49,0c-4.54-.68-7.83.08-10.24,1.63s-2.56,3.13-4.73,3.63c-3.51.82-6.68-2.21-10.19-3a11,11,0,0,0-6.41.52A107.24,107.24,0,0,0,332,96.5c-12.53-13.77-28.15-23.33-43.22-29.63a166.27,166.27,0,0,0-42.25-11.06,112.24,112.24,0,0,0-50.65,5.06c4.34,1.58,7.21,2.3,11.52,5.14,12.12,8,22.2,18.59,32.84,28.44,19.33,17.9,44.05,39.9,68.91,56.52a7.67,7.67,0,0,1-2.34,2.71c-2.88,1.89-6.86.49-10.06,1.75-6.7,2.63-4.83,13.46-10.16,18.29-1.65,1.49-3.82,2.23-5.83,3.17a29.41,29.41,0,0,0-13.52,13c-.86,1.64-1.8,3.57-3.6,4-3.31.74-5.46-2.57-9-.32a11.49,11.49,0,0,0-4,5.49,27.35,27.35,0,0,0,3.55,26.51,4,4,0,0,1-4.41.11c-2.92-1.88-5.22-1.1-7.19,2-3.35,5.22-3.68,12-1.87,17.92,1.9,6.25,6.65,10.18,9.41,15.63a6.56,6.56,0,0,0-3.81,2.12c-5,6.62,13.6,16.28,17.73,19.7,5.93,4.91,11.37,10.88,13.61,18.24-1.62-5.34-14-11.82-19.11-9.95-2.94,1.08-4.45,4.63-3.92,7.72s2.65,5.68,5.12,7.61c4.37,3.43,9.21,6.38,13,10.45,1.29,1.37,3.63,3.3,2.67,5.3-.52,1.09-4.91,2.41-6,3.15a24.77,24.77,0,0,0-7.1,7.6,3.79,3.79,0,0,0-.66,1.81,4,4,0,0,0,.86,2.2c1.18,1.8,7.58,5.42,7.82.88a4.17,4.17,0,0,0,3.67,2.12,5.22,5.22,0,0,0,1.29,4.83c-1.24-1.28-6.28,7.55-6.56,8.46a12.22,12.22,0,0,0,.64,9.12,12.86,12.86,0,0,0,15.41,6.81c4.29-1.42,9.07-5,12.69-2.32,5.42,4.05-2.61,12.44-1.24,19.07,1,5.12,7.45,7.19,12.64,6.59s10.23-2.83,15.43-2.34,10.54,5.66,8.42,10.43c-1.85,4.14-8.25,5.65-8.46,10.18-.23,4.87,7.08,6.26,11.33,3.86s7.51-6.77,12.29-7.69c10.27-2,16.52,12.43,26.78,14.5,5.06,1,10.14-1.18,15.22-2.12,6.52-1.21,8.95,5.75,13.42,4.91,3.72-.7,6.13-4.46,7.54-7.35a25.35,25.35,0,0,1,9.09-2c7-.2,10.16,2.85,15.68,2,2.37-.35,5.89-1.53,9.85-5.67a15.21,15.21,0,0,1,6.17-6.92c4.25-2.43,10-3.14,13.76-.57,1.76,1.21,3.28,3,5.37,3.4,3.84.82,7-3.18,8.2-6.93s1.7-8.07,4.69-10.64c2.39-2,7.59,1.85,9.68,2.92,4,2,14.53-7.25,16.52-10.54,1.78-2.92,1.64-6.58,1.45-10l-.87-15.22c-.35-6.22,4.17-3.62,7.88-2.77a103.31,103.31,0,0,0,11.47,2c8.82,1,5.41-9.92,3.45-14.71s-2.13-12.51,3.09-13.54c3.74-.74,7.73,2.93,11.11,1.17a7.44,7.44,0,0,0,2.93-3.75,59,59,0,0,0,5.25-26.74c5.08,1.9,13.16,2,13.41-3.4A6.48,6.48,0,0,0,567.9,291.38Z"/></svg>